<svg width="1280" height="100" viewBox="0 0 1280 100" fill="none" xmlns="http://www.w3.org/2000/svg">
<rect width="1280" height="100" fill="#F8D57E"/>
<path d="M77 43H55C54.4477 43 54 43.4477 54 44V59C54 59.5523 54.4477 60 55 60H77C77.5523 60 78 59.5523 78 59V44C78 43.4477 77.5523 43 77 43Z" stroke="#2D2D2D" stroke-width="2" stroke-linecap="round" stroke-linejoin="round"/>
<path d="M60 37L66 43L72 37" stroke="#2D2D2D" stroke-width="2" stroke-linecap="round" stroke-linejoin="round"/>
<path d="M73.5 50C74.3284 50 75 49.3284 75 48.5C75 47.6716 74.3284 47 73.5 47C72.6716 47 72 47.6716 72 48.5C72 49.3284 72.6716 50 73.5 50Z" fill="#2D2D2D"/>
<path d="M73.5 56C74.3284 56 75 55.3284 75 54.5C75 53.6716 74.3284 53 73.5 53C72.6716 53 72 53.6716 72 54.5C72 55.3284 72.6716 56 73.5 56Z" fill="#2D2D2D"/>
<path d="M69 60V43" stroke="#2D2D2D" stroke-width="2" stroke-linecap="round" stroke-linejoin="round"/>
<path d="M671.591 50.4C671.591 49.3013 671.837 48.32 672.327 47.456C672.829 46.5813 673.506 45.904 674.359 45.424C675.223 44.9333 676.189 44.688 677.255 44.688C678.503 44.688 679.597 45.008 680.535 45.648C681.474 46.288 682.13 47.1733 682.503 48.304H679.927C679.671 47.7707 679.309 47.3707 678.839 47.104C678.381 46.8373 677.847 46.704 677.239 46.704C676.589 46.704 676.007 46.8587 675.495 47.168C674.994 47.4667 674.599 47.8933 674.311 48.448C674.034 49.0027 673.895 49.6533 673.895 50.4C673.895 51.136 674.034 51.7867 674.311 52.352C674.599 52.9067 674.994 53.3387 675.495 53.648C676.007 53.9467 676.589 54.096 677.239 54.096C677.847 54.096 678.381 53.9627 678.839 53.696C679.309 53.4187 679.671 53.0133 679.927 52.48H682.503C682.13 53.6213 681.474 54.512 680.535 55.152C679.607 55.7813 678.514 56.096 677.255 56.096C676.189 56.096 675.223 55.856 674.359 55.376C673.506 54.8853 672.829 54.208 672.327 53.344C671.837 52.48 671.591 51.4987 671.591 50.4ZM688.353 56.144C687.499 56.144 686.731 55.9573 686.049 55.584C685.366 55.2 684.827 54.6613 684.433 53.968C684.049 53.2747 683.857 52.4747 683.857 51.568C683.857 50.6613 684.054 49.8613 684.449 49.168C684.854 48.4747 685.403 47.9413 686.097 47.568C686.79 47.184 687.563 46.992 688.417 46.992C689.27 46.992 690.043 47.184 690.737 47.568C691.43 47.9413 691.974 48.4747 692.369 49.168C692.774 49.8613 692.977 50.6613 692.977 51.568C692.977 52.4747 692.769 53.2747 692.352 53.968C691.947 54.6613 691.393 55.2 690.689 55.584C689.995 55.9573 689.217 56.144 688.353 56.144ZM688.353 54.192C688.758 54.192 689.137 54.096 689.489 53.904C689.851 53.7013 690.139 53.4027 690.353 53.008C690.566 52.6133 690.673 52.1333 690.673 51.568C690.673 50.7253 690.449 50.08 690.001 49.632C689.563 49.1733 689.025 48.944 688.385 48.944C687.745 48.944 687.206 49.1733 686.769 49.632C686.342 50.08 686.129 50.7253 686.129 51.568C686.129 52.4107 686.337 53.0613 686.753 53.52C687.179 53.968 687.713 54.192 688.353 54.192ZM699.532 47.008C700.588 47.008 701.441 47.344 702.092 48.016C702.742 48.6773 703.068 49.6053 703.068 50.8V56H700.828V51.104C700.828 50.4 700.652 49.8613 700.3 49.488C699.948 49.104 699.468 48.912 698.86 48.912C698.241 48.912 697.75 49.104 697.388 49.488C697.036 49.8613 696.86 50.4 696.86 51.104V56H694.62V47.136H696.86V48.24C697.158 47.856 697.537 47.5573 697.996 47.344C698.465 47.12 698.977 47.008 699.532 47.008ZM707.806 48.976V53.264C707.806 53.5627 707.875 53.7813 708.014 53.92C708.163 54.048 708.408 54.112 708.75 54.112H709.79V56H708.382C706.494 56 705.55 55.0827 705.55 53.248V48.976H704.494V47.136H705.55V44.944H707.806V47.136H709.79V48.976H707.806ZM710.825 51.536C710.825 50.64 711.001 49.8453 711.353 49.152C711.716 48.4587 712.201 47.9253 712.809 47.552C713.428 47.1787 714.116 46.992 714.873 46.992C715.534 46.992 716.11 47.1253 716.601 47.392C717.102 47.6587 717.502 47.9947 717.801 48.4V47.136H720.057V56H717.801V54.704C717.513 55.12 717.113 55.4667 716.601 55.744C716.1 56.0107 715.518 56.144 714.857 56.144C714.11 56.144 713.428 55.952 712.809 55.568C712.201 55.184 711.716 54.6453 711.353 53.952C711.001 53.248 710.825 52.4427 710.825 51.536ZM717.801 51.568C717.801 51.024 717.694 50.56 717.481 50.176C717.268 49.7813 716.98 49.4827 716.617 49.28C716.254 49.0667 715.865 48.96 715.449 48.96C715.033 48.96 714.649 49.0613 714.297 49.264C713.945 49.4667 713.657 49.7653 713.433 50.16C713.22 50.544 713.113 51.0027 713.113 51.536C713.113 52.0693 713.22 52.5387 713.433 52.944C713.657 53.3387 713.945 53.6427 714.297 53.856C714.66 54.0693 715.044 54.176 715.449 54.176C715.865 54.176 716.254 54.0747 716.617 53.872C716.98 53.6587 717.268 53.36 717.481 52.976C717.694 52.5813 717.801 52.112 717.801 51.568ZM721.669 51.568C721.669 50.6507 721.855 49.8507 722.229 49.168C722.602 48.4747 723.119 47.9413 723.781 47.568C724.442 47.184 725.199 46.992 726.053 46.992C727.151 46.992 728.058 47.2693 728.773 47.824C729.498 48.368 729.983 49.136 730.229 50.128H727.813C727.685 49.744 727.466 49.4453 727.157 49.232C726.858 49.008 726.485 48.896 726.037 48.896C725.397 48.896 724.89 49.1307 724.517 49.6C724.143 50.0587 723.957 50.7147 723.957 51.568C723.957 52.4107 724.143 53.0667 724.517 53.536C724.89 53.9947 725.397 54.224 726.037 54.224C726.943 54.224 727.535 53.8187 727.813 53.008H730.229C729.983 53.968 729.498 54.7307 728.773 55.296C728.047 55.8613 727.141 56.144 726.053 56.144C725.199 56.144 724.442 55.9573 723.781 55.584C723.119 55.2 722.602 54.6667 722.229 53.984C721.855 53.2907 721.669 52.4853 721.669 51.568ZM734.478 48.976V53.264C734.478 53.5627 734.547 53.7813 734.686 53.92C734.835 54.048 735.08 54.112 735.422 54.112H736.462V56H735.054C733.166 56 732.222 55.0827 732.222 53.248V48.976H731.166V47.136H732.222V44.944H734.478V47.136H736.462V48.976H734.478Z" fill="#009379"/>
<path d="M787 50C787 40.6812 787 36.0218 788.522 32.3463C790.552 27.4458 794.446 23.5523 799.346 21.5224C803.022 20 807.681 20 817 20H959C968.319 20 972.978 20 976.654 21.5224C981.554 23.5523 985.448 27.4458 987.478 32.3463C989 36.0218 989 40.6812 989 50C989 59.3188 989 63.9782 987.478 67.6537C985.448 72.5542 981.554 76.4477 976.654 78.4776C972.978 80 968.319 80 959 80H817C807.681 80 803.022 80 799.346 78.4776C794.446 76.4477 790.552 72.5542 788.522 67.6537C787 63.9782 787 59.3188 787 50Z" fill="#E5F4F2"/>
<path d="M847.524 44.832V56H845.284V51.248H840.5V56H838.26V44.832H840.5V49.424H845.284V44.832H847.524ZM853.665 56.144C852.812 56.144 852.044 55.9573 851.361 55.584C850.678 55.2 850.14 54.6613 849.745 53.968C849.361 53.2747 849.169 52.4747 849.169 51.568C849.169 50.6613 849.366 49.8613 849.761 49.168C850.166 48.4747 850.716 47.9413 851.409 47.568C852.102 47.184 852.876 46.992 853.729 46.992C854.582 46.992 855.356 47.184 856.049 47.568C856.742 47.9413 857.286 48.4747 857.681 49.168C858.086 49.8613 858.289 50.6613 858.289 51.568C858.289 52.4747 858.081 53.2747 857.665 53.968C857.26 54.6613 856.705 55.2 856.001 55.584C855.308 55.9573 854.529 56.144 853.665 56.144ZM853.665 54.192C854.07 54.192 854.449 54.096 854.801 53.904C855.164 53.7013 855.452 53.4027 855.665 53.008C855.878 52.6133 855.985 52.1333 855.985 51.568C855.985 50.7253 855.761 50.08 855.313 49.632C854.876 49.1733 854.337 48.944 853.697 48.944C853.057 48.944 852.518 49.1733 852.081 49.632C851.654 50.08 851.441 50.7253 851.441 51.568C851.441 52.4107 851.649 53.0613 852.065 53.52C852.492 53.968 853.025 54.192 853.665 54.192ZM872.22 47.136L869.628 56H867.212L865.596 49.808L863.98 56H861.548L858.94 47.136H861.212L862.78 53.888L864.476 47.136H866.844L868.508 53.872L870.076 47.136H872.22ZM878.381 46.08C877.986 46.08 877.655 45.9573 877.389 45.712C877.133 45.456 877.005 45.1413 877.005 44.768C877.005 44.3947 877.133 44.0853 877.389 43.84C877.655 43.584 877.986 43.456 878.381 43.456C878.775 43.456 879.101 43.584 879.357 43.84C879.623 44.0853 879.757 44.3947 879.757 44.768C879.757 45.1413 879.623 45.456 879.357 45.712C879.101 45.9573 878.775 46.08 878.381 46.08ZM879.485 47.136V56H877.245V47.136H879.485ZM884.306 48.976V53.264C884.306 53.5627 884.375 53.7813 884.514 53.92C884.663 54.048 884.908 54.112 885.25 54.112H886.29V56H884.882C882.994 56 882.05 55.0827 882.05 53.248V48.976H880.994V47.136H882.05V44.944H884.306V47.136H886.29V48.976H884.306ZM904.001 47.136L901.409 56H898.993L897.377 49.808L895.761 56H893.329L890.721 47.136H892.993L894.561 53.888L896.257 47.136H898.625L900.289 53.872L901.857 47.136H904.001ZM909.149 56.144C908.296 56.144 907.528 55.9573 906.845 55.584C906.163 55.2 905.624 54.6613 905.229 53.968C904.845 53.2747 904.653 52.4747 904.653 51.568C904.653 50.6613 904.851 49.8613 905.245 49.168C905.651 48.4747 906.2 47.9413 906.893 47.568C907.587 47.184 908.36 46.992 909.213 46.992C910.067 46.992 910.84 47.184 911.533 47.568C912.227 47.9413 912.771 48.4747 913.165 49.168C913.571 49.8613 913.773 50.6613 913.773 51.568C913.773 52.4747 913.565 53.2747 913.149 53.968C912.744 54.6613 912.189 55.2 911.485 55.584C910.792 55.9573 910.013 56.144 909.149 56.144ZM909.149 54.192C909.555 54.192 909.933 54.096 910.285 53.904C910.648 53.7013 910.936 53.4027 911.149 53.008C911.363 52.6133 911.469 52.1333 911.469 51.568C911.469 50.7253 911.245 50.08 910.797 49.632C910.36 49.1733 909.821 48.944 909.181 48.944C908.541 48.944 908.003 49.1733 907.565 49.632C907.139 50.08 906.925 50.7253 906.925 51.568C906.925 52.4107 907.133 53.0613 907.549 53.52C907.976 53.968 908.509 54.192 909.149 54.192ZM917.657 48.512C917.945 48.0427 918.318 47.6747 918.777 47.408C919.246 47.1413 919.779 47.008 920.377 47.008V49.36H919.785C919.081 49.36 918.547 49.5253 918.185 49.856C917.833 50.1867 917.657 50.7627 917.657 51.584V56H915.417V47.136H917.657V48.512ZM927.133 56L924.125 52.224V56H921.885V44.16H924.125V50.896L927.101 47.136H930.013L926.109 51.584L930.045 56H927.133ZM934.621 56.144C933.896 56.144 933.245 56.016 932.669 55.76C932.093 55.4933 931.634 55.136 931.293 54.688C930.962 54.24 930.781 53.744 930.749 53.2H933.005C933.048 53.5413 933.213 53.824 933.501 54.048C933.8 54.272 934.168 54.384 934.605 54.384C935.032 54.384 935.362 54.2987 935.597 54.128C935.842 53.9573 935.965 53.7387 935.965 53.472C935.965 53.184 935.816 52.9707 935.517 52.832C935.229 52.6827 934.765 52.5227 934.125 52.352C933.464 52.192 932.92 52.0267 932.493 51.856C932.077 51.6853 931.714 51.424 931.405 51.072C931.106 50.72 930.957 50.2453 930.957 49.648C930.957 49.1573 931.096 48.7093 931.373 48.304C931.661 47.8987 932.066 47.5787 932.589 47.344C933.122 47.1093 933.746 46.992 934.461 46.992C935.517 46.992 936.36 47.2587 936.989 47.792C937.618 48.3147 937.965 49.024 938.029 49.92H935.885C935.853 49.568 935.704 49.2907 935.437 49.088C935.181 48.8747 934.834 48.768 934.397 48.768C933.992 48.768 933.677 48.8427 933.453 48.992C933.24 49.1413 933.133 49.3493 933.133 49.616C933.133 49.9147 933.282 50.144 933.581 50.304C933.88 50.4533 934.344 50.608 934.973 50.768C935.613 50.928 936.141 51.0933 936.557 51.264C936.973 51.4347 937.33 51.7013 937.629 52.064C937.938 52.416 938.098 52.8853 938.109 53.472C938.109 53.984 937.965 54.4427 937.677 54.848C937.4 55.2533 936.994 55.5733 936.461 55.808C935.938 56.032 935.325 56.144 934.621 56.144Z" fill="#009379"/>
<path d="M1009 50C1009 40.6812 1009 36.0218 1010.52 32.3463C1012.55 27.4458 1016.45 23.5523 1021.35 21.5224C1025.02 20 1029.68 20 1039 20H1200C1209.32 20 1213.98 20 1217.65 21.5224C1222.55 23.5523 1226.45 27.4458 1228.48 32.3463C1230 36.0218 1230 40.6812 1230 50C1230 59.3188 1230 63.9782 1228.48 67.6537C1226.45 72.5542 1222.55 76.4477 1217.65 78.4776C1213.98 80 1209.32 80 1200 80H1039C1029.68 80 1025.02 80 1021.35 78.4776C1016.45 76.4477 1012.55 72.5542 1010.52 67.6537C1009 63.9782 1009 59.3188 1009 50Z" fill="#009379"/>
<path d="M1066.35 54.4219C1065.46 57.0703 1061.93 57.0703 1061.93 57.0703C1061.93 57.0703 1061.93 53.5391 1064.58 52.6484" stroke="#F8F9FF" stroke-width="1.66667" stroke-linecap="round" stroke-linejoin="round"/>
<path d="M1074.3 48.2345L1069 53.5392L1065.46 50.0001L1070.77 44.6954C1072.77 42.6876 1074.78 42.711 1075.64 42.836C1075.77 42.8537 1075.9 42.9146 1075.99 43.0092C1076.09 43.1038 1076.15 43.2269 1076.16 43.3595C1076.29 44.2188 1076.31 46.2267 1074.3 48.2345Z" stroke="#F8F9FF" stroke-width="1.66667" stroke-linecap="round" stroke-linejoin="round"/>
<path d="M1073.42 49.1172V54.1641C1073.42 54.3289 1073.35 54.4862 1073.23 54.6016L1070.71 57.1328C1070.63 57.2128 1070.53 57.2695 1070.42 57.297C1070.31 57.3244 1070.2 57.3215 1070.09 57.2886C1069.98 57.2558 1069.88 57.1941 1069.81 57.1102C1069.73 57.0264 1069.68 56.9235 1069.66 56.8125L1069 53.5391" stroke="#F8F9FF" stroke-width="1.66667" stroke-linecap="round" stroke-linejoin="round"/>
<path d="M1069.88 45.5781H1064.84C1064.67 45.5805 1064.51 45.6479 1064.4 45.7656L1061.87 48.2891C1061.79 48.3691 1061.73 48.4694 1061.7 48.5792C1061.68 48.6889 1061.68 48.8041 1061.71 48.9124C1061.74 49.0206 1061.81 49.118 1061.89 49.1939C1061.97 49.2699 1062.08 49.3217 1062.19 49.3437L1065.46 50" stroke="#F8F9FF" stroke-width="1.66667" stroke-linecap="round" stroke-linejoin="round"/>
<path d="M1096.2 48.192C1095.94 47.7227 1095.59 47.3653 1095.14 47.12C1094.7 46.8747 1094.17 46.752 1093.58 46.752C1092.91 46.752 1092.33 46.9013 1091.82 47.2C1091.3 47.4987 1090.9 47.9253 1090.62 48.48C1090.33 49.0347 1090.18 49.6747 1090.18 50.4C1090.18 51.1467 1090.33 51.7973 1090.62 52.352C1090.91 52.9067 1091.33 53.3333 1091.85 53.632C1092.37 53.9307 1092.98 54.08 1093.67 54.08C1094.53 54.08 1095.22 53.856 1095.77 53.408C1096.31 52.9493 1096.67 52.3147 1096.84 51.504H1093V49.792H1099.05V51.744C1098.9 52.5227 1098.58 53.2427 1098.09 53.904C1097.6 54.5653 1096.96 55.0987 1096.18 55.504C1095.42 55.8987 1094.55 56.096 1093.59 56.096C1092.51 56.096 1091.54 55.856 1090.66 55.376C1089.8 54.8853 1089.12 54.208 1088.62 53.344C1088.13 52.48 1087.88 51.4987 1087.88 50.4C1087.88 49.3013 1088.13 48.32 1088.62 47.456C1089.12 46.5813 1089.8 45.904 1090.66 45.424C1091.54 44.9333 1092.51 44.688 1093.58 44.688C1094.83 44.688 1095.93 44.9973 1096.86 45.616C1097.78 46.224 1098.42 47.0827 1098.78 48.192H1096.2ZM1108.95 51.376C1108.95 51.696 1108.92 51.984 1108.88 52.24H1102.4C1102.45 52.88 1102.68 53.3813 1103.07 53.744C1103.47 54.1067 1103.95 54.288 1104.53 54.288C1105.36 54.288 1105.95 53.9307 1106.31 53.216H1108.72C1108.47 54.0693 1107.97 54.7733 1107.25 55.328C1106.52 55.872 1105.63 56.144 1104.58 56.144C1103.72 56.144 1102.96 55.9573 1102.27 55.584C1101.6 55.2 1101.07 54.6613 1100.69 53.968C1100.32 53.2747 1100.13 52.4747 1100.13 51.568C1100.13 50.6507 1100.32 49.8453 1100.69 49.152C1101.06 48.4587 1101.59 47.9253 1102.26 47.552C1102.93 47.1787 1103.7 46.992 1104.58 46.992C1105.42 46.992 1106.17 47.1733 1106.83 47.536C1107.51 47.8987 1108.02 48.416 1108.39 49.088C1108.76 49.7493 1108.95 50.512 1108.95 51.376ZM1106.63 50.736C1106.61 50.16 1106.41 49.7013 1106 49.36C1105.6 49.008 1105.1 48.832 1104.51 48.832C1103.96 48.832 1103.49 49.0027 1103.11 49.344C1102.73 49.6747 1102.5 50.1387 1102.42 50.736H1106.63ZM1113.19 48.976V53.264C1113.19 53.5627 1113.26 53.7813 1113.4 53.92C1113.55 54.048 1113.79 54.112 1114.13 54.112H1115.17V56H1113.76C1111.88 56 1110.93 55.0827 1110.93 53.248V48.976H1109.88V47.136H1110.93V44.944H1113.19V47.136H1115.17V48.976H1113.19ZM1124.45 56.112C1123.67 56.112 1122.97 55.9787 1122.34 55.712C1121.72 55.4453 1121.23 55.0613 1120.87 54.56C1120.51 54.0587 1120.32 53.4667 1120.31 52.784H1122.71C1122.74 53.2427 1122.9 53.6053 1123.19 53.872C1123.49 54.1387 1123.89 54.272 1124.4 54.272C1124.93 54.272 1125.34 54.1493 1125.64 53.904C1125.93 53.648 1126.08 53.3173 1126.08 52.912C1126.08 52.5813 1125.98 52.3093 1125.78 52.096C1125.58 51.8827 1125.32 51.7173 1125.01 51.6C1124.71 51.472 1124.3 51.3333 1123.76 51.184C1123.04 50.9707 1122.45 50.7627 1121.99 50.56C1121.54 50.3467 1121.15 50.032 1120.82 49.616C1120.5 49.1893 1120.34 48.624 1120.34 47.92C1120.34 47.2587 1120.51 46.6827 1120.84 46.192C1121.17 45.7013 1121.63 45.328 1122.23 45.072C1122.83 44.8053 1123.51 44.672 1124.28 44.672C1125.43 44.672 1126.36 44.9547 1127.08 45.52C1127.8 46.0747 1128.2 46.8533 1128.28 47.856H1125.81C1125.79 47.472 1125.63 47.1573 1125.32 46.912C1125.02 46.656 1124.62 46.528 1124.12 46.528C1123.68 46.528 1123.33 46.64 1123.06 46.864C1122.8 47.088 1122.68 47.4133 1122.68 47.84C1122.68 48.1387 1122.77 48.3893 1122.96 48.592C1123.17 48.784 1123.41 48.944 1123.7 49.072C1124 49.1893 1124.41 49.328 1124.95 49.488C1125.67 49.7013 1126.27 49.9147 1126.72 50.128C1127.18 50.3413 1127.58 50.6613 1127.91 51.088C1128.24 51.5147 1128.4 52.0747 1128.4 52.768C1128.4 53.3653 1128.25 53.92 1127.94 54.432C1127.63 54.944 1127.18 55.3547 1126.58 55.664C1125.98 55.9627 1125.27 56.112 1124.45 56.112ZM1132.95 48.976V53.264C1132.95 53.5627 1133.02 53.7813 1133.16 53.92C1133.31 54.048 1133.56 54.112 1133.9 54.112H1134.94V56H1133.53C1131.64 56 1130.7 55.0827 1130.7 53.248V48.976H1129.64V47.136H1130.7V44.944H1132.95V47.136H1134.94V48.976H1132.95ZM1135.97 51.536C1135.97 50.64 1136.15 49.8453 1136.5 49.152C1136.86 48.4587 1137.35 47.9253 1137.96 47.552C1138.58 47.1787 1139.26 46.992 1140.02 46.992C1140.68 46.992 1141.26 47.1253 1141.75 47.392C1142.25 47.6587 1142.65 47.9947 1142.95 48.4V47.136H1145.21V56H1142.95V54.704C1142.66 55.12 1142.26 55.4667 1141.75 55.744C1141.25 56.0107 1140.67 56.144 1140.01 56.144C1139.26 56.144 1138.58 55.952 1137.96 55.568C1137.35 55.184 1136.86 54.6453 1136.5 53.952C1136.15 53.248 1135.97 52.4427 1135.97 51.536ZM1142.95 51.568C1142.95 51.024 1142.84 50.56 1142.63 50.176C1142.42 49.7813 1142.13 49.4827 1141.77 49.28C1141.4 49.0667 1141.01 48.96 1140.6 48.96C1140.18 48.96 1139.8 49.0613 1139.45 49.264C1139.09 49.4667 1138.81 49.7653 1138.58 50.16C1138.37 50.544 1138.26 51.0027 1138.26 51.536C1138.26 52.0693 1138.37 52.5387 1138.58 52.944C1138.81 53.3387 1139.09 53.6427 1139.45 53.856C1139.81 54.0693 1140.19 54.176 1140.6 54.176C1141.01 54.176 1141.4 54.0747 1141.77 53.872C1142.13 53.6587 1142.42 53.36 1142.63 52.976C1142.84 52.5813 1142.95 52.112 1142.95 51.568ZM1149.63 48.512C1149.92 48.0427 1150.29 47.6747 1150.75 47.408C1151.22 47.1413 1151.76 47.008 1152.35 47.008V49.36H1151.76C1151.06 49.36 1150.52 49.5253 1150.16 49.856C1149.81 50.1867 1149.63 50.7627 1149.63 51.584V56H1147.39V47.136H1149.63V48.512ZM1156.47 48.976V53.264C1156.47 53.5627 1156.54 53.7813 1156.68 53.92C1156.83 54.048 1157.07 54.112 1157.41 54.112H1158.45V56H1157.05C1155.16 56 1154.21 55.0827 1154.21 53.248V48.976H1153.16V47.136H1154.21V44.944H1156.47V47.136H1158.45V48.976H1156.47ZM1168.3 51.376C1168.3 51.696 1168.28 51.984 1168.24 52.24H1161.76C1161.81 52.88 1162.04 53.3813 1162.43 53.744C1162.83 54.1067 1163.31 54.288 1163.89 54.288C1164.72 54.288 1165.31 53.9307 1165.66 53.216H1168.08C1167.82 54.0693 1167.33 54.7733 1166.61 55.328C1165.88 55.872 1164.99 56.144 1163.94 56.144C1163.08 56.144 1162.32 55.9573 1161.63 55.584C1160.96 55.2 1160.43 54.6613 1160.05 53.968C1159.68 53.2747 1159.49 52.4747 1159.49 51.568C1159.49 50.6507 1159.68 49.8453 1160.05 49.152C1160.42 48.4587 1160.94 47.9253 1161.62 47.552C1162.29 47.1787 1163.06 46.992 1163.94 46.992C1164.78 46.992 1165.53 47.1733 1166.19 47.536C1166.86 47.8987 1167.38 48.416 1167.74 49.088C1168.12 49.7493 1168.3 50.512 1168.3 51.376ZM1165.98 50.736C1165.97 50.16 1165.77 49.7013 1165.36 49.36C1164.96 49.008 1164.46 48.832 1163.87 48.832C1163.32 48.832 1162.85 49.0027 1162.46 49.344C1162.09 49.6747 1161.86 50.1387 1161.78 50.736H1165.98ZM1169.36 51.536C1169.36 50.64 1169.54 49.8453 1169.89 49.152C1170.25 48.4587 1170.75 47.9253 1171.36 47.552C1171.98 47.1787 1172.67 46.992 1173.43 46.992C1174 46.992 1174.55 47.12 1175.08 47.376C1175.6 47.6213 1176.01 47.952 1176.32 48.368V44.16H1178.6V56H1176.32V54.688C1176.05 55.1253 1175.66 55.4773 1175.16 55.744C1174.65 56.0107 1174.07 56.144 1173.41 56.144C1172.67 56.144 1171.98 55.952 1171.36 55.568C1170.75 55.184 1170.25 54.6453 1169.89 53.952C1169.54 53.248 1169.36 52.4427 1169.36 51.536ZM1176.34 51.568C1176.34 51.024 1176.23 50.56 1176.02 50.176C1175.81 49.7813 1175.52 49.4827 1175.16 49.28C1174.79 49.0667 1174.4 48.96 1173.99 48.96C1173.57 48.96 1173.19 49.0613 1172.84 49.264C1172.48 49.4667 1172.2 49.7653 1171.97 50.16C1171.76 50.544 1171.65 51.0027 1171.65 51.536C1171.65 52.0693 1171.76 52.5387 1171.97 52.944C1172.2 53.3387 1172.48 53.6427 1172.84 53.856C1173.2 54.0693 1173.58 54.176 1173.99 54.176C1174.4 54.176 1174.79 54.0747 1175.16 53.872C1175.52 53.6587 1175.81 53.36 1176.02 52.976C1176.23 52.5813 1176.34 52.112 1176.34 51.568Z" fill="white"/>
</svg>
